<svg xmlns="http://www.w3.org/2000/svg" xmlns:xlink="http://www.w3.org/1999/xlink" width="500" zoomAndPan="magnify" viewBox="0 0 375 374.999991" height="500" preserveAspectRatio="xMidYMid meet" version="1.0"><defs><g/><clipPath id="id1"><path d="M 53.476562 53.476562 L 321.226562 53.476562 L 321.226562 321.226562 L 53.476562 321.226562 Z M 53.476562 53.476562 " clip-rule="nonzero"/></clipPath><clipPath id="id2"><path d="M 87.296875 162.554688 L 287.546875 162.554688 L 287.546875 209.054688 L 87.296875 209.054688 Z M 87.296875 162.554688 " clip-rule="nonzero"/></clipPath><clipPath id="id3"><path d="M 132.5625 118.75 L 244 118.75 L 244 267 L 132.5625 267 Z M 132.5625 118.75 " clip-rule="nonzero"/></clipPath></defs><rect x="-37.5" width="450" fill="#ffffff" y="-37.499999" height="449.999989" fill-opacity="1"/><rect x="-37.5" width="450" fill="#000000" y="-37.499999" height="449.999989" fill-opacity="1"/><rect x="-37.5" width="450" fill="#ffffff" y="-37.499999" height="449.999989" fill-opacity="1"/><rect x="-37.5" width="450" fill="#000000" y="-37.499999" height="449.999989" fill-opacity="1"/><g clip-path="url(#id1)"><path fill="#ffd700" d="M 187.351562 321.226562 C 113.554688 321.226562 53.476562 261.148438 53.476562 187.351562 C 53.476562 113.554688 113.554688 53.476562 187.351562 53.476562 C 261.148438 53.476562 321.226562 113.554688 321.226562 187.351562 C 321.226562 261.148438 261.148438 321.226562 187.351562 321.226562 Z M 187.351562 55.457031 C 114.613281 55.457031 55.457031 114.613281 55.457031 187.351562 C 55.457031 260.09375 114.613281 319.25 187.351562 319.25 C 260.09375 319.25 319.25 260.09375 319.25 187.351562 C 319.25 114.613281 260.09375 55.457031 187.351562 55.457031 Z M 187.351562 55.457031 " fill-opacity="1" fill-rule="nonzero"/></g><g fill="#ffd700" fill-opacity="1"><g transform="translate(103.31504, 149.328067)"><g><path d="M 16.421875 0.546875 C 12.097656 0.546875 8.632812 -0.804688 6.03125 -3.515625 C 3.4375 -6.234375 2.140625 -9.960938 2.140625 -14.703125 L 2.140625 -42.015625 C 2.140625 -47.910156 3.3125 -52.351562 5.65625 -55.34375 C 8 -58.332031 11.679688 -59.828125 16.703125 -59.828125 C 21.066406 -59.828125 24.582031 -58.628906 27.25 -56.234375 C 29.914062 -53.835938 31.25 -50.390625 31.25 -45.890625 L 31.25 -35.671875 L 19.453125 -35.671875 L 19.453125 -44.4375 C 19.453125 -46.132812 19.242188 -47.304688 18.828125 -47.953125 C 18.421875 -48.597656 17.710938 -48.921875 16.703125 -48.921875 C 15.640625 -48.921875 14.910156 -48.550781 14.515625 -47.8125 C 14.128906 -47.082031 13.9375 -46.003906 13.9375 -44.578125 L 13.9375 -14.828125 C 13.9375 -13.265625 14.164062 -12.125 14.625 -11.40625 C 15.082031 -10.695312 15.773438 -10.34375 16.703125 -10.34375 C 18.535156 -10.34375 19.453125 -11.835938 19.453125 -14.828125 L 19.453125 -25.53125 L 31.390625 -25.53125 L 31.390625 -14.359375 C 31.390625 -4.421875 26.398438 0.546875 16.421875 0.546875 Z M 16.421875 0.546875 "/></g></g><g transform="translate(136.021038, 149.328067)"><g><path d="M 2.625 0 L 2.625 -59.265625 L 14.421875 -59.265625 L 14.421875 -38.09375 L 20.015625 -38.09375 L 20.015625 -59.265625 L 31.8125 -59.265625 L 31.8125 0 L 20.015625 0 L 20.015625 -26.90625 L 14.421875 -26.90625 L 14.421875 0 Z M 2.625 0 "/></g></g><g transform="translate(170.452036, 149.328067)"><g><path d="M 2.0625 0 L 2.0625 -59.265625 L 13.53125 -59.265625 L 13.53125 0 Z M 2.0625 0 "/></g></g><g transform="translate(186.115035, 149.328067)"><g><path d="M 2.625 0 L 2.625 -59.265625 L 14.484375 -59.265625 L 14.484375 -10.078125 L 26.703125 -10.078125 L 26.703125 0 Z M 2.625 0 "/></g></g><g transform="translate(213.508033, 149.328067)"><g><path d="M 2.625 0 L 2.625 -59.265625 L 14.484375 -59.265625 L 14.484375 -10.078125 L 26.703125 -10.078125 L 26.703125 0 Z M 2.625 0 "/></g></g><g transform="translate(240.901031, 149.328067)"><g><path d="M 9.796875 0 L 9.796875 -19.53125 L 0.34375 -59.265625 L 12.078125 -59.265625 L 15.390625 -39.1875 L 18.703125 -59.265625 L 30.421875 -59.265625 L 20.96875 -19.53125 L 20.96875 0 Z M 9.796875 0 "/></g></g></g><g clip-path="url(#id2)"><path fill="#000000" d="M 87.300781 162.554688 L 287.546875 162.554688 L 287.546875 209.054688 L 87.300781 209.054688 L 87.300781 162.554688 " fill-opacity="1" fill-rule="nonzero"/></g><path stroke-linecap="butt" transform="matrix(3.753272, 0, 0, 4.114285, 100.19761, 164.403709)" fill="none" stroke-linejoin="miter" d="M 0.000428647 -0.000331881 L 46.560849 -0.000331881 " stroke="#ffd700" stroke-width="1" stroke-opacity="1" stroke-miterlimit="4"/><path stroke-linecap="butt" transform="matrix(3.753272, 0, 0, 4.114285, 100.19761, 208.545558)" fill="none" stroke-linejoin="miter" d="M 0.000428647 0.000320224 L 46.560849 0.000320224 " stroke="#ffd700" stroke-width="1" stroke-opacity="1" stroke-miterlimit="4"/><g clip-path="url(#id3)"><path fill="#f1473a" d="M 188.964844 266.65625 C 173.679688 266.65625 135.902344 264.273438 132.558594 220.898438 C 132.558594 220.898438 142.34375 238.183594 142.359375 236.152344 C 142.40625 229.554688 132.558594 205.410156 157.175781 188.964844 C 187.300781 168.84375 178.207031 144.160156 171.039062 143.683594 C 171.039062 143.683594 190.316406 141.738281 192.074219 167.230469 C 193.027344 181.101562 204.742188 141.0625 197.808594 118.898438 C 197.808594 118.898438 233.003906 137.488281 228.640625 183.246094 C 228.640625 183.246094 234.078125 172.878906 243.222656 178.417969 C 243.222656 178.417969 237.484375 180.386719 239.398438 195.640625 C 241.308594 210.890625 249.671875 266.65625 188.964844 266.65625 " fill-opacity="1" fill-rule="nonzero"/></g><path fill="#f79326" d="M 184.421875 265.074219 C 174.542969 264.625 155.742188 262.453125 155.742188 237.90625 C 155.742188 213.359375 180.359375 210.023438 180.359375 187.382812 C 180.359375 187.382812 192.070312 191.433594 190.878906 202.636719 C 190.878906 202.636719 213.820312 188.335938 211.910156 171.414062 C 211.910156 171.414062 261.542969 268.589844 184.421875 265.074219 " fill-opacity="1" fill-rule="nonzero"/><path fill="#f79326" d="M 184.421875 265.074219 C 174.542969 264.625 155.742188 262.453125 155.742188 237.90625 C 155.742188 213.359375 180.359375 210.023438 180.359375 187.382812 C 180.359375 187.382812 192.070312 191.433594 190.878906 202.636719 C 190.878906 202.636719 213.820312 188.335938 211.910156 171.414062 C 211.910156 171.414062 261.542969 268.589844 184.421875 265.074219 " fill-opacity="1" fill-rule="nonzero"/><path fill="#fff533" d="M 189.203125 222.792969 C 189.203125 222.792969 195.179688 240.261719 185.378906 240.261719 C 178.566406 240.261719 179.402344 232.875 179.402344 232.875 C 179.402344 232.875 160.402344 263.617188 189.203125 263.617188 C 195.039062 263.617188 205.21875 262.425781 205.21875 246.699219 C 205.21875 230.96875 196.371094 224.628906 189.203125 222.792969 " fill-opacity="1" fill-rule="nonzero"/><g fill="#ffd700" fill-opacity="1"><g transform="translate(121.600506, 196.002117)"><g><path d="M 6.453125 0.21875 C 4.753906 0.21875 3.394531 -0.3125 2.375 -1.375 C 1.351562 -2.445312 0.84375 -3.914062 0.84375 -5.78125 L 0.84375 -16.515625 C 0.84375 -18.828125 1.300781 -20.566406 2.21875 -21.734375 C 3.144531 -22.910156 4.59375 -23.5 6.5625 -23.5 C 8.28125 -23.5 9.660156 -23.03125 10.703125 -22.09375 C 11.753906 -21.15625 12.28125 -19.800781 12.28125 -18.03125 L 12.28125 -14.015625 L 7.640625 -14.015625 L 7.640625 -17.453125 C 7.640625 -18.128906 7.554688 -18.59375 7.390625 -18.84375 C 7.234375 -19.09375 6.957031 -19.21875 6.5625 -19.21875 C 6.144531 -19.21875 5.859375 -19.070312 5.703125 -18.78125 C 5.546875 -18.5 5.46875 -18.078125 5.46875 -17.515625 L 5.46875 -5.828125 C 5.46875 -5.210938 5.554688 -4.765625 5.734375 -4.484375 C 5.921875 -4.203125 6.195312 -4.0625 6.5625 -4.0625 C 7.28125 -4.0625 7.640625 -4.648438 7.640625 -5.828125 L 7.640625 -10.03125 L 12.328125 -10.03125 L 12.328125 -5.640625 C 12.328125 -1.734375 10.367188 0.21875 6.453125 0.21875 Z M 6.453125 0.21875 "/></g></g></g><g fill="#ffd700" fill-opacity="1"><g transform="translate(139.871507, 196.002117)"><g><path d="M 1.03125 0 L 1.03125 -23.28125 L 5.6875 -23.28125 L 5.6875 -3.953125 L 10.484375 -3.953125 L 10.484375 0 Z M 1.03125 0 "/></g></g></g><g fill="#ffd700" fill-opacity="1"><g transform="translate(156.055391, 196.002117)"><g><path d="M 6.59375 0.21875 C 4.707031 0.21875 3.273438 -0.351562 2.296875 -1.5 C 1.328125 -2.644531 0.84375 -4.257812 0.84375 -6.34375 L 0.84375 -17.4375 C 0.84375 -19.4375 1.328125 -20.945312 2.296875 -21.96875 C 3.273438 -22.988281 4.707031 -23.5 6.59375 -23.5 C 8.46875 -23.5 9.890625 -22.988281 10.859375 -21.96875 C 11.835938 -20.945312 12.328125 -19.4375 12.328125 -17.4375 L 12.328125 -6.34375 C 12.328125 -4.25 11.835938 -2.628906 10.859375 -1.484375 C 9.890625 -0.347656 8.46875 0.21875 6.59375 0.21875 Z M 6.59375 -4.0625 C 7.007812 -4.0625 7.285156 -4.242188 7.421875 -4.609375 C 7.566406 -4.972656 7.640625 -5.476562 7.640625 -6.125 L 7.640625 -17.515625 C 7.640625 -18.015625 7.570312 -18.421875 7.4375 -18.734375 C 7.300781 -19.054688 7.023438 -19.21875 6.609375 -19.21875 C 5.835938 -19.21875 5.453125 -18.628906 5.453125 -17.453125 L 5.453125 -6.09375 C 5.453125 -5.425781 5.53125 -4.921875 5.6875 -4.578125 C 5.851562 -4.234375 6.15625 -4.0625 6.59375 -4.0625 Z M 6.59375 -4.0625 "/></g></g></g><g fill="#ffd700" fill-opacity="1"><g transform="translate(174.651667, 196.002117)"><g><path d="M 3.03125 0 L 3.03125 -18.8125 L 0.265625 -18.8125 L 0.265625 -23.28125 L 10.46875 -23.28125 L 10.46875 -18.8125 L 7.703125 -18.8125 L 7.703125 0 Z M 3.03125 0 "/></g></g></g><g fill="#ffd700" fill-opacity="1"><g transform="translate(190.80844, 196.002117)"><g><path d="M 1.03125 0 L 1.03125 -23.28125 L 5.671875 -23.28125 L 5.671875 -14.96875 L 7.859375 -14.96875 L 7.859375 -23.28125 L 12.5 -23.28125 L 12.5 0 L 7.859375 0 L 7.859375 -10.578125 L 5.671875 -10.578125 L 5.671875 0 Z M 1.03125 0 "/></g></g></g><g fill="#ffd700" fill-opacity="1"><g transform="translate(209.75708, 196.002117)"><g><path d="M 0.8125 0 L 0.8125 -23.28125 L 5.3125 -23.28125 L 5.3125 0 Z M 0.8125 0 "/></g></g></g><g fill="#ffd700" fill-opacity="1"><g transform="translate(221.333024, 196.002117)"><g><path d="M 1.03125 0 L 1.03125 -23.28125 L 5.828125 -23.28125 L 7.96875 -12.140625 L 7.96875 -23.28125 L 12.46875 -23.28125 L 12.46875 0 L 7.921875 0 L 5.578125 -11.65625 L 5.578125 0 Z M 1.03125 0 "/></g></g></g><g fill="#ffd700" fill-opacity="1"><g transform="translate(240.254558, 196.002117)"><g><path d="M 5.828125 0.21875 C 4.148438 0.21875 2.898438 -0.367188 2.078125 -1.546875 C 1.253906 -2.734375 0.84375 -4.53125 0.84375 -6.9375 L 0.84375 -16.96875 C 0.84375 -19.125 1.320312 -20.75 2.28125 -21.84375 C 3.238281 -22.945312 4.664062 -23.5 6.5625 -23.5 C 8.09375 -23.5 9.28125 -23.191406 10.125 -22.578125 C 10.976562 -21.960938 11.566406 -21.066406 11.890625 -19.890625 C 12.222656 -18.722656 12.390625 -17.21875 12.390625 -15.375 L 7.828125 -15.375 L 7.828125 -17.453125 C 7.828125 -18.015625 7.75 -18.445312 7.59375 -18.75 C 7.445312 -19.0625 7.175781 -19.21875 6.78125 -19.21875 C 5.894531 -19.21875 5.453125 -18.640625 5.453125 -17.484375 L 5.453125 -6.203125 C 5.453125 -5.503906 5.539062 -4.972656 5.71875 -4.609375 C 5.894531 -4.242188 6.210938 -4.0625 6.671875 -4.0625 C 7.117188 -4.0625 7.429688 -4.242188 7.609375 -4.609375 C 7.796875 -4.972656 7.890625 -5.503906 7.890625 -6.203125 L 7.890625 -9.546875 L 6.640625 -9.546875 L 6.640625 -13.5625 L 12.328125 -13.5625 L 12.328125 0 L 10.46875 0 L 9.671875 -1.953125 C 8.847656 -0.503906 7.566406 0.21875 5.828125 0.21875 Z M 5.828125 0.21875 "/></g></g></g></svg>